<svg xmlns="http://www.w3.org/2000/svg" width="30" height="30" viewBox="0 0 30 30">
  <path fill="#000000" d="M 11.916016 6.28125 A 4 4 0 0 0 7.9160156 10.28125 A 4 4 0 0 0 11.916016 14.28125 A 4 4 0 0 0 15.916016 10.28125 A 4 4 0 0 0 11.916016 6.28125 z M 8.4628906 15.115234 C 5.2252742 16.489124 3.0845987 19.623082 2.9824219 23.138672 C 5.1722039 25.642012 8.3828992 27.230469 11.972656 27.230469 C 13.939081 27.230469 15.782366 26.738864 17.416016 25.896484 C 16.972529 25.303803 16.599939 24.654546 16.285156 23.957031 C 15.297133 21.767701 14.789426 19.133132 14.728516 16.570312 L 14.722656 16.318359 L 12.001953 20.574219 L 8.4628906 15.115234 z M 22.037109 15.308594 C 20.292352 15.308594 17.177734 17.251953 17.177734 17.251953 C 17.287817 21.883593 19.126557 27.009156 22.037109 26.972656 C 22.040309 26.972626 22.043675 26.972696 22.046875 26.972656 C 22.864919 26.962256 23.588979 26.535536 24.179688 25.916016 C 24.770398 25.296496 25.255835 24.472265 25.654297 23.546875 C 26.45122 21.696085 26.896484 19.437792 26.896484 17.576172 L 26.896484 17.308594 L 26.671875 17.166016 C 26.671875 17.166016 25.951124 16.70805 25.029297 16.25 C 24.107471 15.79195 23.009546 15.308594 22.041016 15.308594 L 22.037109 15.308594 z M 22.037109 16.279297 L 22.041016 16.279297 C 22.641611 16.279297 23.726421 16.688174 24.597656 17.121094 C 25.326193 17.483104 25.720925 17.73488 25.896484 17.84375 C 25.857384 19.50574 25.45849 21.539389 24.759766 23.162109 C 24.392753 24.014469 23.950753 24.748774 23.476562 25.246094 C 23.003258 25.742454 22.526857 25.9928 22.037109 26 L 22.037109 16.279297 z"/>
</svg>