<?xml version="1.0" encoding="utf-8"?><!-- Uploaded to: SVG Repo, www.svgrepo.com, Generator: SVG Repo Mixer Tools -->
<svg width="800px" height="800px" viewBox="0 0 24 24" id="notification-alt" xmlns="http://www.w3.org/2000/svg" class="icon multi-color"><path id="tertiary-fill" d="M4,16H20a0,0,0,0,1,0,0v2a2,2,0,0,1-2,2H6a2,2,0,0,1-2-2V16A0,0,0,0,1,4,16Z" style="fill: #b7b7b7; stroke-width: 2;"></path><circle id="secondary-fill" cx="18.5" cy="5.5" r="2.5" style="fill: rgb(44, 169, 188); stroke-width: 2;"></circle><path id="primary-stroke" d="M20,12v6a2,2,0,0,1-2,2H6a2,2,0,0,1-2-2V6A2,2,0,0,1,6,4h6m4,1.5A2.5,2.5,0,1,0,18.5,3,2.5,2.5,0,0,0,16,5.5Z" style="fill: none; stroke: rgb(0, 0, 0); stroke-linecap: round; stroke-linejoin: round; stroke-width: 2;"></path></svg>